<svg xmlns="http://www.w3.org/2000/svg" width="256" height="256" viewBox="0 0 100 100"><rect width="100" height="100" rx="20" fill="#494950"></rect><path fill="#fff" d="M31.97 24.53L41.57 24.53L41.57 66.53L33.59 66.53L12.65 41.03L12.65 66.53L3.05 66.53L3.05 24.53L11.09 24.53L31.97 50.03L31.97 24.53ZM92.63 65.87L96.95 71.03Q94.91 73.55 92 74.87Q89.09 76.19 85.61 76.19L85.61 76.19Q80.93 76.19 77.15 74.18Q73.37 72.17 68.51 67.07L68.51 67.07Q62.81 66.35 58.34 63.41Q53.87 60.47 51.38 55.82Q48.89 51.17 48.89 45.53L48.89 45.53Q48.89 39.35 51.86 34.40Q54.83 29.45 60.08 26.63Q65.33 23.81 71.87 23.81L71.87 23.81Q78.41 23.81 83.63 26.63Q88.85 29.45 91.85 34.40Q94.85 39.35 94.85 45.53L94.85 45.53Q94.85 52.85 90.74 58.37Q86.63 63.89 79.85 66.05L79.85 66.05Q81.35 67.61 82.76 68.30Q84.17 68.99 85.79 68.99L85.79 68.99Q89.69 68.99 92.63 65.87L92.63 65.87ZM58.73 45.53Q58.73 49.43 60.44 52.49Q62.15 55.55 65.15 57.26Q68.15 58.97 71.87 58.97L71.87 58.97Q75.59 58.97 78.59 57.26Q81.59 55.55 83.30 52.49Q85.01 49.43 85.01 45.53L85.01 45.53Q85.01 41.63 83.30 38.57Q81.59 35.51 78.59 33.80Q75.59 32.09 71.87 32.09L71.87 32.09Q68.15 32.09 65.15 33.80Q62.15 35.51 60.44 38.57Q58.73 41.63 58.73 45.53L58.73 45.53Z"></path></svg>